<svg width="500" height="500" viewBox="0 0 500 500" xmlns="http://www.w3.org/2000/svg">
  <g id="logo_composition" transform="translate(0, 0)">

    <style>
      .cls-1 { fill: #0a1f44; } /* Main navy blue fill for nodes and text */
      .cls-2 { fill: none; stroke: #0a1f44; stroke-width: 1.5; stroke-linecap: round; stroke-linejoin: round; } /* Main navy blue stroke for lines and head profile */
      .cls-3 { font-family: 'Inter', sans-serif; font-weight: 700; font-size: 64px; text-anchor: middle; } /* Typographic style */
    </style>

    <g id="medhira_icon" transform="translate(250, 180)">

      <path class="cls-2" d="M0-115 C20,-115 40,-110 50,-100 C60,-90 65,-80 65,-65 C65,-50 60,-35 50,-25 C40,-15 30,-10 20,0 L15,10 C10,20 5,30 0,35 C-5,40 -15,40 -25,35 L-40,25 C-50,15 -60,0 -60,-20 C-60,-40 -50,-60 -40,-75 C-30,-90 -15,-105 -5,-110 Z" />

      <g id="neural_M_network">
        <path class="cls-2" d="M-40,-50 L-30,-75 L-10,-55 L10,-75 L30,-50 L20,-20 L-10,-40 L-40,-20 Z" />

        <line class="cls-2" x1="-30" y1="-75" x2="-20" y2="-90" />
        <line class="cls-2" x1="-20" y1="-90" x2="0" y2="-95" />
        <line class="cls-2" x1="0" y1="-95" x2="15" y2="-85" />
        <line class="cls-2" x1="15" y1="-85" x2="10" y2="-75" />
        <line class="cls-2" x1="-30" y1="-75" x2="-45" y2="-65" />
        <line class="cls-2" x1="-40" y1="-50" x2="-55" y2="-45" />
        <line class="cls-2" x1="-55" y1="-45" x2="-60" y2="-30" />
        <line class="cls-2" x1="-60" y1="-30" x2="-55" y2="-15" />
        <line class="cls-2" x1="-55" y1="-15" x2="-45" y2="-5" />
        <line class="cls-2" x1="-40" y1="-20" x2="-35" y2="5" />
        <line class="cls-2" x1="-35" y1="5" x2="-25" y2="15" />
        <line class="cls-2" x1="20" y1="-20" x2="35" y2="-5" />
        <line class="cls-2" x1="35" y1="-5" x2="45" y2="5" />
        <line class="cls-2" x1="45" y1="5" x2="55" y2="0" />
        <line class="cls-2" x1="55" y1="0" x2="60" y2="-15" />
        <line class="cls-2" x1="30" y1="-50" x2="45" y2="-45" />
        <line class="cls-2" x1="45" y1="-45" x2="55" y2="-55" />
        <line class="cls-2" x1="55" y1="-55" x2="50" y2="-70" />
        <line class="cls-2" x1="50" y1="-70" x2="35" y2="-75" />
        <line class="cls-2" x1="35" y1="-75" x2="10" y2="-75" />
        <line class="cls-2" x1="-10" y1="-55" x2="0" y2="-65" />
        <line class="cls-2" x1="0" y1="-65" x2="10" y2="-75" />
        <line class="cls-2" x1="-10" y1="-40" x2="5" y2="-35" />
        <line class="cls-2" x1="5" y1="-35" x2="20" y2="-20" />
        <line class="cls-2" x1="-40" y1="-50" x2="-25" y2="-65" stroke-dasharray="2 3" opacity="0.6"/> <line class="cls-2" x1="-10" y1="-55" x2="-20" y2="-45" stroke-dasharray="2 3" opacity="0.6"/>

        <circle class="cls-1" cx="-40" cy="-50" r="3.5" />
        <circle class="cls-1" cx="-30" cy="-75" r="3.5" />
        <circle class="cls-1" cx="-10" cy="-55" r="3.5" />
        <circle class="cls-1" cx="10" cy="-75" r="3.5" />
        <circle class="cls-1" cx="30" cy="-50" r="3.5" />
        <circle class="cls-1" cx="20" cy="-20" r="3.5" />
        <circle class="cls-1" cx="-10" cy="-40" r="3.5" />
        <circle class="cls-1" cx="-40" cy="-20" r="3.5" />
        <circle class="cls-1" cx="-20" cy="-90" r="2.5" opacity="0.8" />
        <circle class="cls-1" cx="0" cy="-95" r="2.5" opacity="0.8" />
        <circle class="cls-1" cx="15" cy="-85" r="2.5" opacity="0.8" />
        <circle class="cls-1" cx="-45" cy="-65" r="2.5" opacity="0.8" />
        <circle class="cls-1" cx="-55" cy="-45" r="2.5" opacity="0.8" />
        <circle class="cls-1" cx="-60" cy="-30" r="2.5" opacity="0.8" />
        <circle class="cls-1" cx="-55" cy="-15" r="2.5" opacity="0.8" />
        <circle class="cls-1" cx="-45" cy="-5" r="2.5" opacity="0.8" />
        <circle class="cls-1" cx="-35" cy="5" r="2.5" opacity="0.8" />
        <circle class="cls-1" cx="-25" cy="15" r="2.5" opacity="0.8" />
        <circle class="cls-1" cx="35" cy="-5" r="2.5" opacity="0.8" />
        <circle class="cls-1" cx="45" cy="5" r="2.5" opacity="0.8" />
        <circle class="cls-1" cx="55" cy="0" r="2.5" opacity="0.8" />
        <circle class="cls-1" cx="60" cy="-15" r="2.5" opacity="0.8" />
        <circle class="cls-1" cx="45" cy="-45" r="2.5" opacity="0.8" />
        <circle class="cls-1" cx="55" cy="-55" r="2.5" opacity="0.8" />
        <circle class="cls-1" cx="50" cy="-70" r="2.5" opacity="0.8" />
        <circle class="cls-1" cx="35" cy="-75" r="2.5" opacity="0.8" />
        <circle class="cls-1" cx="0" cy="-65" r="2" opacity="0.6" />
        <circle class="cls-1" cx="5" cy="-35" r="2" opacity="0.6" />
      </g>

      <path class="cls-2" d="M0,0 M-130,-50 C-130,-10 -60,40 0,40 C60,40 130,-10 130,-50 C130,-90 60,-140 0,-140 C-60,-140 -130,-90 -130,-50 Z" />

    </g>

    <g id="medhira_text" transform="translate(250, 420)">
      <text class="cls-1 cls-3" x="0" y="0">Medhira</text>
    </g>

  </g>
</svg>
